<svg xmlns="http://www.w3.org/2000/svg" width="32" height="32" viewBox="0 0 32 32"><path fill="#f4f4fd" d="M32 6.078c-1.19.522-2.458.868-3.78 1.036a6.52 6.52 0 0 0 2.886-3.626 13.1 13.1 0 0 1-4.16 1.588A6.57 6.57 0 0 0 22.154 3c-3.632 0-6.556 2.948-6.556 6.562 0 .52.044 1.02.152 1.496-5.454-.266-10.28-2.88-13.522-6.862a6.6 6.6 0 0 0-.898 3.316 6.57 6.57 0 0 0 2.914 5.452 6.5 6.5 0 0 1-2.964-.808v.072c0 3.188 2.274 5.836 5.256 6.446a6.6 6.6 0 0 1-1.72.216 5.8 5.8 0 0 1-1.242-.112c.85 2.598 3.262 4.508 6.13 4.57a13.18 13.18 0 0 1-8.134 2.798c-.538 0-1.054-.024-1.57-.09A18.47 18.47 0 0 0 10.064 29c12.072 0 18.672-10 18.672-18.668q-.002-.433-.024-.848A13.1 13.1 0 0 0 32 6.078"/></svg>